HIERARCHY
ROOT reference
{
  OFFSET 0 0 0
  CHANNELS 6 Xposition Yposition Zposition Zrotation Xrotation Yrotation
  JOINT Hips
  {
    OFFSET 368.823 89.7904 194.012
    CHANNELS 3 Zrotation Xrotation Yrotation
    JOINT RightUpLeg
    {
      OFFSET -9.24587 -1.53924 -0.0496539
      CHANNELS 3 Zrotation Xrotation Yrotation
      JOINT RightLeg
      {
        OFFSET 0.0288962 -41.8853 0.065208
        CHANNELS 3 Zrotation Xrotation Yrotation
        JOINT RightFoot
        {
          OFFSET -0.153961 -42.496 -0.469978
          CHANNELS 3 Zrotation Xrotation Yrotation
          End Site
          {
            OFFSET 0 -7.69 17.5
          }
        }
      }
    }
    JOINT LeftUpLeg
    {
      OFFSET 9.30368 -1.65799 0.0114032
      CHANNELS 3 Zrotation Xrotation Yrotation
      JOINT LeftLeg
      {
        OFFSET 0.0812002 -41.8405 -0.136291
        CHANNELS 3 Zrotation Xrotation Yrotation
        JOINT LeftFoot
        {
          OFFSET 0.408244 -41.1613 0.400562
          CHANNELS 3 Zrotation Xrotation Yrotation
          End Site
          {
            OFFSET 0 -7.69 17.5
          }
        }
      }
    }
    JOINT Spine
    {
      OFFSET 0.0091145 14.2923 0.0603898
      CHANNELS 3 Zrotation Xrotation Yrotation
      JOINT Spine1
      {
        OFFSET 0.0313032 9.72692 0.0269052
        CHANNELS 3 Zrotation Xrotation Yrotation
        JOINT Spine2
        {
          OFFSET 0.0416827 10.1254 -0.000588186
          CHANNELS 3 Zrotation Xrotation Yrotation
          JOINT Spine3
          {
            OFFSET 0.0353017 9.71596 0.00525809
            CHANNELS 3 Zrotation Xrotation Yrotation
            JOINT Neck
            {
              OFFSET 0.0870676 10.3793 0.0454457
              CHANNELS 3 Zrotation Xrotation Yrotation
              JOINT Head
              {
                OFFSET 0.0878806 9.48152 0.0233162
                CHANNELS 3 Zrotation Xrotation Yrotation
                End Site
                {
                  OFFSET 0 15.95 0
                }
              }
            }
            JOINT RightShoulder
            {
              OFFSET -3.16008 6.92912 0.0289115
              CHANNELS 3 Zrotation Xrotation Yrotation
              JOINT RightArm
              {
                OFFSET -12.7589 0.0216905 0.0632467
                CHANNELS 3 Zrotation Xrotation Yrotation
                JOINT RightForeArm
                {
                  OFFSET -26.506 -0.0577999 0.0567862
                  CHANNELS 3 Zrotation Xrotation Yrotation
                  JOINT RightHand
                  {
                    OFFSET -25.9836 -0.0526551 -0.00138994
                    CHANNELS 3 Zrotation Xrotation Yrotation
                    JOINT RightHandThumb1
                    {
                      OFFSET -2.48905 0.190105 3.12053
                      CHANNELS 3 Zrotation Xrotation Yrotation
                      JOINT RightHandThumb2
                      {
                        OFFSET -3.68274 0 0
                        CHANNELS 3 Zrotation Xrotation Yrotation
                        JOINT RightHandThumb3
                        {
                          OFFSET -2.55832 0 0
                          CHANNELS 3 Zrotation Xrotation Yrotation
                          End Site
                          {
                            OFFSET -2.194 0 0
                          }
                        }
                      }
                    }
                    JOINT RightInHandIndex
                    {
                      OFFSET -3.22368 0.508421 1.97842
                      CHANNELS 3 Zrotation Xrotation Yrotation
                      JOINT RightHandIndex1
                      {
                        OFFSET -5.21684 -0.091368 0.999158
                        CHANNELS 3 Zrotation Xrotation Yrotation
                        JOINT RightHandIndex2
                        {
                          OFFSET -3.61937 0 0
                          CHANNELS 3 Zrotation Xrotation Yrotation
                          JOINT RightHandIndex3
                          {
                            OFFSET -2.0521 0 0
                            CHANNELS 3 Zrotation Xrotation Yrotation
                            End Site
                            {
                              OFFSET -1.805 0 0
                            }
                          }
                        }
                      }
                    }
                    JOINT RightInHandMiddle
                    {
                      OFFSET -3.38211 0.517263 0.756737
                      CHANNELS 3 Zrotation Xrotation Yrotation
                      JOINT RightHandMiddle1
                      {
                        OFFSET -5.17411 -0.084 0.313895
                        CHANNELS 3 Zrotation Xrotation Yrotation
                        JOINT RightHandMiddle2
                        {
                          OFFSET -3.94947 0 0
                          CHANNELS 3 Zrotation Xrotation Yrotation
                          JOINT RightHandMiddle3
                          {
                            OFFSET -2.47579 0 0
                            CHANNELS 3 Zrotation Xrotation Yrotation
                            End Site
                            {
                              OFFSET -1.975 0 0
                            }
                          }
                        }
                      }
                    }
                    JOINT RightInHandRing
                    {
                      OFFSET -3.36516 0.537895 -0.128947
                      CHANNELS 3 Zrotation Xrotation Yrotation
                      JOINT RightHandRing1
                      {
                        OFFSET -4.63474 -0.022105 -0.478947
                        CHANNELS 3 Zrotation Xrotation Yrotation
                        JOINT RightHandRing2
                        {
                          OFFSET -3.44238 0 0
                          CHANNELS 3 Zrotation Xrotation Yrotation
                          JOINT RightHandRing3
                          {
                            OFFSET -2.3881 0 0
                            CHANNELS 3 Zrotation Xrotation Yrotation
                            End Site
                            {
                              OFFSET -1.857 0 0
                            }
                          }
                        }
                      }
                    }
                    JOINT RightInHandPinky
                    {
                      OFFSET -3.16105 0.469368 -1.20179
                      CHANNELS 3 Zrotation Xrotation Yrotation
                      JOINT RightHandPinky1
                      {
                        OFFSET -4.14105 -0.022105 -1.09053
                        CHANNELS 3 Zrotation Xrotation Yrotation
                        JOINT RightHandPinky2
                        {
                          OFFSET -2.75653 0 0
                          CHANNELS 3 Zrotation Xrotation Yrotation
                          JOINT RightHandPinky3
                          {
                            OFFSET -1.74189 0 0
                            CHANNELS 3 Zrotation Xrotation Yrotation
                            End Site
                            {
                              OFFSET -1.645 0 0
                            }
                          }
                        }
                      }
                    }
                  }
                }
              }
            }
            JOINT LeftShoulder
            {
              OFFSET 3.24363 6.91883 -0.0263005
              CHANNELS 3 Zrotation Xrotation Yrotation
              JOINT LeftArm
              {
                OFFSET 12.8387 -0.0254922 -0.065819
                CHANNELS 3 Zrotation Xrotation Yrotation
                JOINT LeftForeArm
                {
                  OFFSET 26.503 -0.0679028 -0.0690065
                  CHANNELS 3 Zrotation Xrotation Yrotation
                  JOINT LeftHand
                  {
                    OFFSET 25.9897 -0.0384179 -0.0536179
                    CHANNELS 3 Zrotation Xrotation Yrotation
                    JOINT LeftHandThumb1
                    {
                      OFFSET 2.48905 0.190105 3.12053
                      CHANNELS 3 Zrotation Xrotation Yrotation
                      JOINT LeftHandThumb2
                      {
                        OFFSET 3.68274 0 0
                        CHANNELS 3 Zrotation Xrotation Yrotation
                        JOINT LeftHandThumb3
                        {
                          OFFSET 2.55832 0 0
                          CHANNELS 3 Zrotation Xrotation Yrotation
                          End Site
                          {
                            OFFSET 2.194 0 0
                          }
                        }
                      }
                    }
                    JOINT LeftInHandIndex
                    {
                      OFFSET 3.22368 0.508421 1.97842
                      CHANNELS 3 Zrotation Xrotation Yrotation
                      JOINT LeftHandIndex1
                      {
                        OFFSET 5.21684 -0.091368 0.999158
                        CHANNELS 3 Zrotation Xrotation Yrotation
                        JOINT LeftHandIndex2
                        {
                          OFFSET 3.61937 0 0
                          CHANNELS 3 Zrotation Xrotation Yrotation
                          JOINT LeftHandIndex3
                          {
                            OFFSET 2.0521 0 0
                            CHANNELS 3 Zrotation Xrotation Yrotation
                            End Site
                            {
                              OFFSET 1.805 0 0
                            }
                          }
                        }
                      }
                    }
                    JOINT LeftInHandMiddle
                    {
                      OFFSET 3.38211 0.517263 0.756737
                      CHANNELS 3 Zrotation Xrotation Yrotation
                      JOINT LeftHandMiddle1
                      {
                        OFFSET 5.17411 -0.084 0.313895
                        CHANNELS 3 Zrotation Xrotation Yrotation
                        JOINT LeftHandMiddle2
                        {
                          OFFSET 3.94947 0 0
                          CHANNELS 3 Zrotation Xrotation Yrotation
                          JOINT LeftHandMiddle3
                          {
                            OFFSET 2.47579 0 0
                            CHANNELS 3 Zrotation Xrotation Yrotation
                            End Site
                            {
                              OFFSET 1.975 0 0
                            }
                          }
                        }
                      }
                    }
                    JOINT LeftInHandRing
                    {
                      OFFSET 3.36516 0.537895 -0.128947
                      CHANNELS 3 Zrotation Xrotation Yrotation
                      JOINT LeftHandRing1
                      {
                        OFFSET 4.63474 -0.022105 -0.478947
                        CHANNELS 3 Zrotation Xrotation Yrotation
                        JOINT LeftHandRing2
                        {
                          OFFSET 3.44238 0 0
                          CHANNELS 3 Zrotation Xrotation Yrotation
                          JOINT LeftHandRing3
                          {
                            OFFSET 2.3881 0 0
                            CHANNELS 3 Zrotation Xrotation Yrotation
                            End Site
                            {
                              OFFSET 1.857 0 0
                            }
                          }
                        }
                      }
                    }
                    JOINT LeftInHandPinky
                    {
                      OFFSET 3.16105 0.469368 -1.20179
                      CHANNELS 3 Zrotation Xrotation Yrotation
                      JOINT LeftHandPinky1
                      {
                        OFFSET 4.14105 -0.022105 -1.09053
                        CHANNELS 3 Zrotation Xrotation Yrotation
                        JOINT LeftHandPinky2
                        {
                          OFFSET 2.75653 0 0
                          CHANNELS 3 Zrotation Xrotation Yrotation
                          JOINT LeftHandPinky3
                          {
                            OFFSET 1.74189 0 0
                            CHANNELS 3 Zrotation Xrotation Yrotation
                            End Site
                            {
                              OFFSET 1.645 0 0
                            }
                          }
                        }
                      }
                    }
                  }
                }
              }
            }
          }
        }
      }
    }
  }
}
MOTION
Frames:	5
Frame Time:	0.00833333
0 0 0 0 0 -0 27.6161 12.8366 -69.807 -12.8431 -55.3479 -13.8306 -1.6544 26.8687 -14.7996 8.08411 1.69445 28.6282 9.22147 -47.7219 0.46272 4.92759 32.6013 -0.9679 -10.4812 -13.1918 -17.7892 -8.21932 10.6985 16.5981 -1.77274 2.93958 3.98966 -2.95214 4.78776 6.45786 -0.197036 -0.273214 -0.518306 -0.197149 -0.275478 -0.517808 -3.96218 -5.04562 -9.18102 3.31659 -11.1012 22.5988 73.7841 0.0284547 51.0388 34.8737 -55.6497 23.2672 9.92618 -20.7639 -18.881 28.184 10.7294 19.1592 -4.38877e-15 2.5842e-15 -10 1.68491e-15 3.97569e-16 -10 1.59028e-14 -3.18055e-15 6.36111e-15 19.9818 0.871897 2.3964 24 9.93923e-17 1.90833e-14 20 1.35174e-14 5.88403e-14 1.59028e-14 -3.18055e-15 6.36111e-15 20 -4.77083e-15 9.54166e-15 24 1.2921e-15 2.54444e-14 20 7.15625e-15 1.90833e-14 1.59028e-14 -3.18055e-15 6.36111e-15 19.9748 -1.02565 -2.81938 24 1.81888e-14 1.27222e-14 20 1.90833e-14 5.08889e-14 1.59028e-14 -3.18055e-15 6.36111e-15 19.7815 -3.00948 -8.30515 24 1.59028e-15 1.27222e-14 20 2.62396e-14 3.18055e-14 8.1111 -12.6667 -28.193 -31.2101 36.0667 -70.8998 14.713 -57.3018 16.7531 -21.7799 -23.0691 10.8777 -28.184 10.7294 -19.1592 -8.00641e-15 -9.54166e-15 10 1.51617e-14 -1.27222e-14 10 -6.36111e-15 -6.36111e-15 -4.77083e-15 -19.9818 0.871897 -2.3964 -24 -1.59028e-15 -3.18055e-15 -20 4.9075e-16 3.18055e-15 -6.36111e-15 -6.36111e-15 -4.77083e-15 -20 -9.54166e-15 -1.27222e-14 -24 -1.11319e-14 -0 -20 2.68359e-15 6.36111e-15 -6.36111e-15 -6.36111e-15 -4.77083e-15 -19.9748 -1.02565 2.81938 -24 -4.77083e-15 -3.18055e-15 -20 -6.36111e-15 1.90833e-14 -6.36111e-15 -6.36111e-15 -4.77083e-15 -19.7815 -3.00948 8.30515 -24 -2.38542e-15 6.36111e-15 -20 6.75868e-15 -3.18055e-15 
0 0 0 0 0 -0 27.6246 12.635 -70.223 -12.443 -55.3933 -13.2495 -1.71264 26.7802 -14.6755 8.03735 1.85169 28.6388 9.46973 -47.5911 1.07209 4.88794 32.6761 -1.07169 -10.4074 -13.2799 -17.6884 -8.2921 10.6675 16.7406 -1.78961 2.93628 4.02446 -2.97894 4.78336 6.5104 -0.203671 -0.273214 -0.512549 -0.203791 -0.275478 -0.51202 -4.07707 -5.03398 -9.07748 3.34253 -10.8944 22.5567 74.105 -0.360433 50.8861 35.8479 -55.3469 24.4074 10.0784 -20.8273 -18.8193 28.184 10.7294 19.1592 -1.07979e-14 1.20265e-14 -10 7.30047e-15 4.77083e-15 -10 1.27222e-14 1.59028e-15 3.18055e-15 19.9818 0.871897 2.3964 24 -5.90142e-16 2.54444e-14 20 1.19271e-14 5.725e-14 1.27222e-14 1.59028e-15 3.18055e-15 20 -7.95139e-16 1.90833e-14 24 3.55328e-15 2.54444e-14 20 4.77083e-15 4.77083e-14 1.27222e-14 1.59028e-15 3.18055e-15 19.9748 -1.02565 -2.81938 24 1.1281e-14 6.36111e-15 20 1.51076e-14 3.81667e-14 1.27222e-14 1.59028e-15 3.18055e-15 19.7815 -3.00948 -8.30515 24 -7.95139e-15 1.59028e-14 20 1.66979e-14 4.45278e-14 8.16496 -12.6724 -28.2837 -31.138 36.13 -71.0374 14.8357 -56.8245 16.8272 -21.972 -24.0022 10.6447 -28.184 10.7294 -19.1592 5.60818e-16 -3.18055e-15 10 2.48506e-14 -1.27222e-14 10 -9.54166e-15 -1.59028e-14 -7.95139e-15 -19.9818 0.871897 -2.3964 -24 -3.18055e-15 -1.27222e-14 -20 -2.7892e-15 -6.36111e-15 -9.54166e-15 -1.59028e-14 -7.95139e-15 -20 0 -2.8625e-14 -24 0 -1.90833e-14 -20 -3.97569e-16 -2.22639e-14 -9.54166e-15 -1.59028e-14 -7.95139e-15 -19.9748 -1.02565 2.81938 -24 7.95139e-15 -2.8625e-14 -20 -3.77691e-15 -6.36111e-15 -9.54166e-15 -1.59028e-14 -7.95139e-15 -19.7815 -3.00948 8.30515 -24 1.59028e-15 -2.22639e-14 -20 3.57812e-15 -6.36111e-15 
0 0 0 0 0 -0 27.6278 12.532 -70.4321 -12.2565 -55.4216 -13.0331 -1.76987 26.6968 -14.5582 8.00736 1.9665 28.6593 9.57254 -47.5388 1.28008 4.80356 32.773 -1.09412 -10.3255 -13.3703 -17.5612 -8.27379 10.6399 16.7382 -1.7858 2.92628 4.02487 -2.97268 4.7685 6.51122 -0.210587 -0.273214 -0.505853 -0.210714 -0.275478 -0.505298 -4.19688 -5.02983 -8.95704 3.3802 -10.6967 22.5132 74.1149 -0.367991 50.867 36.9668 -55.533 25.8068 10.1518 -20.782 -18.8137 28.184 10.7294 19.1592 4.69738e-15 8.32411e-15 -10 2.01488e-14 4.37326e-15 -10 1.59028e-14 4.77083e-15 1.11319e-14 19.9818 0.871897 2.3964 24 -7.00716e-15 3.18055e-14 20 3.97569e-15 4.29375e-14 1.59028e-14 4.77083e-15 1.11319e-14 20 -7.15625e-15 1.27222e-14 24 1.1368e-14 3.81667e-14 20 -6.36111e-15 3.33958e-14 1.59028e-14 4.77083e-15 1.11319e-14 19.9748 -1.02565 -2.81938 24 9.49197e-15 1.27222e-14 20 1.03368e-14 4.77083e-14 1.59028e-14 4.77083e-15 1.11319e-14 19.7815 -3.00948 -8.30515 24 -5.46658e-15 1.27222e-14 20 1.19271e-14 3.81667e-14 8.21572 -12.675 -28.3681 -31.099 36.1998 -71.1488 14.921 -56.3093 16.8362 -21.8952 -24.3822 10.6158 -28.184 10.7294 -19.1592 5.60818e-16 -3.18055e-15 10 1.67089e-14 -3.18055e-15 10 -8.82781e-31 -6.36111e-15 -7.95139e-15 -19.9818 0.871897 -2.3964 -24 -9.54166e-15 -1.59028e-14 -20 1.49089e-15 -9.54166e-15 -8.82781e-31 -6.36111e-15 -7.95139e-15 -20 -9.54166e-15 -1.27222e-14 -24 -3.18055e-15 -1.90833e-14 -20 -6.95746e-16 -2.22639e-14 -8.82781e-31 -6.36111e-15 -7.95139e-15 -19.9748 -1.02565 2.81938 -24 1.59028e-15 -2.22639e-14 -20 -3.97569e-15 -0 -8.82781e-31 -6.36111e-15 -7.95139e-15 -19.7815 -3.00948 8.30515 -24 -7.95139e-16 -3.18055e-15 -20 7.95139e-16 -3.18055e-15 
0 0 0 0 0 -0 27.6304 12.412 -70.6884 -12.014 -55.449 -12.7255 -1.82474 26.6024 -14.4472 7.95654 2.0963 28.6795 9.69408 -47.4757 1.49362 4.70613 32.891 -1.07253 -10.2481 -13.4771 -17.4285 -8.25409 10.6104 16.7399 -1.78245 2.92712 4.0265 -2.9658 4.75223 6.51393 -0.218458 -0.273215 -0.497347 -0.218597 -0.275479 -0.49675 -4.32966 -5.03316 -8.80831 3.40315 -10.5011 22.461 73.8947 -0.0376794 50.9701 38.267 -56.1483 27.5204 10.2396 -20.6893 -18.787 28.184 10.7294 19.1592 1.25285e-14 -2.21148e-15 -10 1.00043e-14 1.78906e-15 -10 1.27222e-14 0 7.95139e-15 19.9818 0.871897 2.3964 24 1.15792e-14 3.33958e-14 20 3.97569e-15 3.49861e-14 1.27222e-14 0 7.95139e-15 20 3.18055e-15 2.22639e-14 24 7.60351e-15 2.8625e-14 20 -9.54166e-15 3.18055e-15 1.27222e-14 0 7.95139e-15 19.9748 -1.02565 -2.81938 24 4.99446e-15 1.59028e-14 20 1.74931e-14 2.22639e-14 1.27222e-14 0 7.95139e-15 19.7815 -3.00948 -8.30515 24 7.45443e-16 1.90833e-14 20 7.95139e-15 4.13472e-14 8.24464 -12.6598 -28.4446 -31.066 36.2682 -71.2467 14.9759 -55.7429 16.7987 -21.7202 -24.5709 10.6698 -28.184 10.7294 -19.1592 -1.44656e-14 -9.54166e-15 10 2.80802e-14 -1.27222e-14 10 -9.54166e-15 -9.54166e-15 -1.59028e-15 -19.9818 0.871897 -2.3964 -24 6.36111e-15 -2.54444e-14 -20 8.00108e-15 -2.54444e-14 -9.54166e-15 -9.54166e-15 -1.59028e-15 -20 -9.54166e-15 -2.22639e-14 -24 -1.59028e-15 -1.59028e-14 -20 1.88845e-15 -2.8625e-14 -9.54166e-15 -9.54166e-15 -1.59028e-15 -19.9748 -1.02565 2.81938 -24 9.54166e-15 -3.49861e-14 -20 1.19271e-15 -1.27222e-14 -9.54166e-15 -9.54166e-15 -1.59028e-15 -19.7815 -3.00948 8.30515 -24 1.03368e-14 -1.59028e-14 -20 5.56597e-15 -1.59028e-14 
0 0 0 0 0 -0 27.6277 12.287 -70.9474 -11.7862 -55.4704 -12.4128 -1.8595 26.5082 -14.3438 7.91466 2.2094 28.6936 9.58394 -47.4831 1.16844 4.53427 33.1229 -0.621975 -10.1723 -13.5967 -17.2885 -8.32201 10.602 16.8525 -1.79798 2.92984 4.05337 -2.99049 4.75661 6.55419 -0.219662 -0.273215 -0.498901 -0.21979 -0.275479 -0.496297 -4.36002 -5.10341 -8.79517 3.50792 -10.4178 22.2712 73.9939 -0.121057 50.8626 39.6224 -56.1535 29.18 10.2269 -20.7095 -18.7969 28.184 10.7294 19.1592 7.04635e-15 3.32964e-15 -10 1.78656e-14 9.74045e-15 -10 1.90833e-14 4.77083e-15 4.77083e-15 19.9818 0.871897 2.3964 24 9.74045e-15 5.88403e-14 20 1.03368e-14 8.11041e-14 1.90833e-14 4.77083e-15 4.77083e-15 20 4.77083e-15 2.54444e-14 24 2.20651e-14 5.08889e-14 20 0 6.20208e-14 1.90833e-14 4.77083e-15 4.77083e-15 19.9748 -1.02565 -2.81938 24 8.29926e-15 3.18055e-14 20 1.51076e-14 8.26944e-14 1.90833e-14 4.77083e-15 4.77083e-15 19.7815 -3.00948 -8.30515 24 5.54112e-15 3.18055e-14 20 7.15625e-15 4.77083e-14 8.3609 -12.7453 -28.6681 -31.0199 36.3308 -71.3376 15.0008 -55.1085 16.7298 -21.1047 -23.1716 11.1442 -28.184 10.7294 -19.1592 1.12164e-15 -6.36111e-15 10 2.10602e-14 -9.54166e-15 10 -9.54166e-15 -9.54166e-15 -3.18055e-15 -19.9818 0.871897 -2.3964 -24 -1.59028e-15 6.36111e-15 -20 -4.17448e-15 3.18055e-15 -9.54166e-15 -9.54166e-15 -3.18055e-15 -20 -6.36111e-15 -9.54166e-15 -24 1.59028e-15 3.18055e-15 -20 -3.47873e-16 -6.36111e-15 -9.54166e-15 -9.54166e-15 -3.18055e-15 -19.9748 -1.02565 2.81938 -24 4.77083e-15 -6.36111e-15 -20 -5.46658e-15 6.36111e-15 -9.54166e-15 -9.54166e-15 -3.18055e-15 -19.7815 -3.00948 8.30515 -24 -4.77083e-15 6.36111e-15 -20 5.36719e-15 3.18055e-15 
